<?xml version="1.0" encoding="UTF-8" standalone="no"?>
<!-- Generator: Adobe Illustrator 17.1.0, SVG Export Plug-In . SVG Version: 6.00 Build 0)  -->

<svg
   xmlns:dc="http://purl.org/dc/elements/1.1/"
   xmlns:cc="http://creativecommons.org/ns#"
   xmlns:rdf="http://www.w3.org/1999/02/22-rdf-syntax-ns#"
   xmlns:svg="http://www.w3.org/2000/svg"
   xmlns="http://www.w3.org/2000/svg"
   xmlns:xlink="http://www.w3.org/1999/xlink"
   xmlns:sodipodi="http://sodipodi.sourceforge.net/DTD/sodipodi-0.dtd"
   xmlns:inkscape="http://www.inkscape.org/namespaces/inkscape"
   version="1.1"
   id="Capa_1"
   x="0px"
   y="0px"
   viewBox="0 0 511.001 511.001"
   style="enable-background:new 0 0 511.001 511.001;"
   xml:space="preserve"
   sodipodi:docname="logo.svg"
   inkscape:version="0.92.4 (5da689c313, 2019-01-14)"><metadata
   id="metadata3813"><rdf:RDF><cc:Work
       rdf:about=""><dc:format>image/svg+xml</dc:format><dc:type
         rdf:resource="http://purl.org/dc/dcmitype/StillImage" /><dc:title></dc:title></cc:Work></rdf:RDF></metadata><defs
   id="defs3811"><linearGradient
     inkscape:collect="always"
     id="linearGradient4941"><stop
       style="stop-color:#3f04ff;stop-opacity:1;"
       offset="0"
       id="stop4937" /><stop
       style="stop-color:#3f04ff;stop-opacity:0;"
       offset="1"
       id="stop4939" /></linearGradient><linearGradient
     inkscape:collect="always"
     id="linearGradient4931"><stop
       style="stop-color:#3f04ff;stop-opacity:1;"
       offset="0"
       id="stop4927" /><stop
       style="stop-color:#3f04ff;stop-opacity:0;"
       offset="1"
       id="stop4929" /></linearGradient><linearGradient
     inkscape:collect="always"
     id="linearGradient4921"><stop
       style="stop-color:#3f04ff;stop-opacity:1;"
       offset="0"
       id="stop4917" /><stop
       style="stop-color:#3f04ff;stop-opacity:0;"
       offset="1"
       id="stop4919" /></linearGradient><linearGradient
     inkscape:collect="always"
     id="linearGradient4911"><stop
       style="stop-color:#3f04ff;stop-opacity:1;"
       offset="0"
       id="stop4907" /><stop
       style="stop-color:#3f04ff;stop-opacity:0;"
       offset="1"
       id="stop4909" /></linearGradient><linearGradient
     inkscape:collect="always"
     id="linearGradient4901"><stop
       style="stop-color:#3f04ff;stop-opacity:1;"
       offset="0"
       id="stop4897" /><stop
       style="stop-color:#3f04ff;stop-opacity:0;"
       offset="1"
       id="stop4899" /></linearGradient><linearGradient
     inkscape:collect="always"
     id="linearGradient4875"><stop
       style="stop-color:#3f04ff;stop-opacity:1;"
       offset="0"
       id="stop4871" /><stop
       style="stop-color:#3f04ff;stop-opacity:0;"
       offset="1"
       id="stop4873" /></linearGradient><linearGradient
     inkscape:collect="always"
     xlink:href="#linearGradient4875"
     id="linearGradient4877"
     x1="254.29532"
     y1="143.41774"
     x2="253.09012"
     y2="386.86633"
     gradientUnits="userSpaceOnUse"
     gradientTransform="matrix(0.06262237,0,0,0.06262222,213.31905,218.67971)" /><linearGradient
     inkscape:collect="always"
     xlink:href="#linearGradient4901"
     id="linearGradient4903"
     x1="98.496581"
     y1="153.37244"
     x2="184.70937"
     y2="153.37244"
     gradientUnits="userSpaceOnUse"
     gradientTransform="matrix(0.06262237,0,0,0.06262222,213.31905,218.67971)" /><linearGradient
     inkscape:collect="always"
     xlink:href="#linearGradient4911"
     id="linearGradient4913" /><linearGradient
     inkscape:collect="always"
     xlink:href="#linearGradient4921"
     id="linearGradient4923"
     x1="325.32363"
     y1="154.28798"
     x2="413.00162"
     y2="154.28798"
     gradientUnits="userSpaceOnUse"
     gradientTransform="matrix(0.06262237,0,0,0.06262222,213.31905,218.67971)" /><linearGradient
     inkscape:collect="always"
     xlink:href="#linearGradient4931"
     id="linearGradient4933"
     x1="315.59115"
     y1="377.89258"
     x2="395.52635"
     y2="377.89258"
     gradientUnits="userSpaceOnUse"
     gradientTransform="matrix(0.06262237,0,0,0.06262222,213.31905,218.67971)" /><linearGradient
     inkscape:collect="always"
     xlink:href="#linearGradient4941"
     id="linearGradient4943"
     x1="115.23298"
     y1="379.44689"
     x2="195.62902"
     y2="379.44689"
     gradientUnits="userSpaceOnUse"
     gradientTransform="matrix(0.06262237,0,0,0.06262222,213.31905,218.67971)" /></defs><sodipodi:namedview
   pagecolor="#ffffff"
   bordercolor="#666666"
   borderopacity="1"
   objecttolerance="10"
   gridtolerance="10"
   guidetolerance="10"
   inkscape:pageopacity="0"
   inkscape:pageshadow="2"
   inkscape:window-width="1920"
   inkscape:window-height="1017"
   id="namedview3809"
   showgrid="false"
   inkscape:zoom="0.82974396"
   inkscape:cx="149.06478"
   inkscape:cy="346.45486"
   inkscape:window-x="-8"
   inkscape:window-y="-8"
   inkscape:window-maximized="1"
   inkscape:current-layer="Capa_1" />
<g
   id="g3776"
   transform="matrix(0.06262237,0,0,0.06262222,213.31905,218.67971)">
	<path
   d="m 87.5,416 c -1.98,0 -3.91,0.8 -5.3,2.2 -1.4,1.39 -2.2,3.33 -2.2,5.3 0,1.97 0.8,3.91 2.2,5.3 1.39,1.4 3.32,2.2 5.3,2.2 1.97,0 3.91,-0.8 5.3,-2.2 1.4,-1.39 2.2,-3.33 2.2,-5.3 0,-1.97 -0.8,-3.91 -2.2,-5.3 -1.39,-1.4 -3.33,-2.2 -5.3,-2.2 z"
   id="path3764"
   inkscape:connector-curvature="0" />
	<path
   d="m 498.197,338.197 -58.372,58.372 C 435.061,393.671 429.472,392 423.5,392 c -6.236,0 -12.05,1.83 -16.947,4.969 -0.362,-1.011 -0.94,-1.962 -1.749,-2.771 l -80,-80 c -0.369,-0.369 -0.767,-0.691 -1.186,-0.967 l 5.316,-90.368 c 1.418,-0.274 2.772,-0.961 3.87,-2.059 l 104,-104 c 0.389,-0.389 0.723,-0.812 1.008,-1.257 0.684,-0.351 1.359,-0.718 2.013,-1.116 l 58.372,58.372 c 1.464,1.464 3.384,2.197 5.303,2.197 1.919,0 3.839,-0.732 5.303,-2.197 2.929,-2.929 2.929,-7.677 0,-10.606 L 450.431,103.825 C 453.33,99.061 455,93.472 455,87.5 455,70.131 440.869,56 423.5,56 c -5.972,0 -11.561,1.671 -16.325,4.569 L 348.804,2.197 c -2.929,-2.929 -7.678,-2.929 -10.606,0 -2.929,2.929 -2.929,7.677 0,10.606 L 396.57,71.175 C 393.671,75.939 392,81.528 392,87.5 c 0,1.328 0.092,2.634 0.252,3.919 l -75.103,52.572 c -2.053,-2.897 -4.311,-5.683 -6.798,-8.321 C 295.959,120.406 276.479,112 255.5,112 c -20.979,0 -40.459,8.406 -54.851,23.67 -2.487,2.638 -4.745,5.423 -6.798,8.321 L 118.748,91.419 C 118.908,90.134 119,88.828 119,87.5 c 0,-5.972 -1.671,-11.561 -4.569,-16.325 l 58.372,-58.372 c 2.929,-2.929 2.929,-7.677 0,-10.606 -2.929,-2.929 -7.678,-2.929 -10.606,0 L 103.825,60.569 C 99.061,57.671 93.472,56 87.5,56 70.131,56 56,70.131 56,87.5 c 0,5.972 1.671,11.561 4.569,16.325 L 2.197,162.197 c -2.929,2.929 -2.929,7.677 0,10.606 1.464,1.465 3.384,2.197 5.303,2.197 1.919,0 3.839,-0.732 5.303,-2.197 l 58.372,-58.372 c 0.654,0.398 1.329,0.765 2.013,1.116 0.286,0.445 0.619,0.868 1.008,1.257 l 104,104 c 1.098,1.098 2.452,1.785 3.87,2.059 l 5.316,90.368 c -0.419,0.276 -0.817,0.598 -1.186,0.967 l -80,80 c -0.81,0.81 -1.387,1.761 -1.749,2.771 C 99.55,393.83 93.737,392 87.5,392 c -5.972,0 -11.561,1.671 -16.325,4.569 L 12.803,338.197 c -2.929,-2.929 -7.678,-2.929 -10.606,0 -2.929,2.929 -2.929,7.678 0,10.606 l 58.372,58.372 C 57.671,411.939 56,417.528 56,423.5 c 0,17.369 14.131,31.5 31.5,31.5 5.972,0 11.561,-1.67 16.325,-4.568 l 58.372,58.372 c 1.464,1.465 3.384,2.197 5.303,2.197 1.919,0 3.839,-0.732 5.303,-2.197 2.929,-2.929 2.929,-7.678 0,-10.606 l -56.872,-56.873 91.45,-49.242 c 6.363,4.364 14.047,6.917 22.292,6.917 h 51.654 c 8.245,0 15.929,-2.553 22.292,-6.917 l 91.45,49.242 -56.872,56.873 c -2.929,2.929 -2.929,7.678 0,10.606 1.464,1.465 3.384,2.197 5.303,2.197 1.919,0 3.839,-0.732 5.303,-2.197 l 58.372,-58.372 c 4.764,2.898 10.353,4.568 16.325,4.568 17.369,0 31.5,-14.131 31.5,-31.5 0,-5.972 -1.671,-11.561 -4.569,-16.324 l 58.372,-58.372 c 2.929,-2.929 2.929,-7.678 0,-10.606 -2.928,-2.929 -7.677,-2.929 -10.606,-10e-4 z m -104,66.607 c 0.81,0.81 1.761,1.387 2.772,1.749 -2.995,4.673 -4.789,10.182 -4.947,16.095 l -77.516,-41.739 c 3.591,-5.549 5.84,-12.06 6.254,-19.088 l 1.692,-28.762 z M 423.5,71 c 9.098,0 16.5,7.402 16.5,16.5 0,9.099 -7.402,16.5 -16.5,16.5 C 414.402,104 407,96.599 407,87.5 407,78.402 414.402,71 423.5,71 Z m -25.621,34.79 c 4.057,5.667 9.94,9.936 16.786,11.94 l -84.518,84.518 0.614,-10.432 c 0.715,-12.152 -1.444,-23.959 -6.178,-34.718 z m -186.316,40.171 c 1.419,-1.505 2.901,-2.925 4.438,-4.261 v 17.798 c 0,4.142 3.358,7.5 7.5,7.5 4.142,0 7.5,-3.358 7.5,-7.5 V 135.5 c 0,-1.086 -0.236,-2.116 -0.651,-3.048 7.77,-3.562 16.289,-5.452 25.15,-5.452 8.861,0 17.38,1.89 25.151,5.452 -0.416,0.932 -0.651,1.962 -0.651,3.048 v 23.998 c 0,4.142 3.358,7.5 7.5,7.5 4.142,0 7.5,-3.358 7.5,-7.5 V 141.7 c 1.537,1.336 3.019,2.756 4.438,4.261 11.529,12.227 17.334,28.199 16.347,44.975 l -10,170.003 c -0.464,7.892 -4.651,14.736 -10.785,18.875 V 191.5 c 0,-4.142 -3.358,-7.5 -7.5,-7.5 -4.142,0 -7.5,3.358 -7.5,7.5 v 192 c 0,0.169 0.014,0.334 0.025,0.5 h -49.05 c 0.011,-0.166 0.025,-0.331 0.025,-0.5 v -192 c 0,-4.142 -3.358,-7.5 -7.5,-7.5 -4.142,0 -7.5,3.358 -7.5,7.5 v 188.314 c -6.134,-4.139 -10.32,-10.983 -10.785,-18.875 l -10,-170.003 c -0.987,-16.776 4.819,-32.748 16.348,-44.975 z M 87.5,71 C 96.598,71 104,78.402 104,87.5 104,96.599 96.598,104 87.5,104 78.402,104 71,96.599 71,87.5 71,78.402 78.402,71 87.5,71 Z m 8.836,46.73 c 6.846,-2.004 12.729,-6.273 16.786,-11.94 l 73.297,51.308 c -4.734,10.759 -6.893,22.566 -6.178,34.718 l 0.614,10.432 z m 92.214,215.328 1.692,28.762 c 0.414,7.028 2.662,13.54 6.253,19.088 l -77.516,41.739 c -0.158,-5.913 -1.952,-11.422 -4.947,-16.095 1.011,-0.362 1.962,-0.939 2.772,-1.749 z M 87.5,440 C 78.402,440 71,432.599 71,423.5 71,414.402 78.402,407 87.5,407 c 9.098,0 16.5,7.402 16.5,16.5 0,9.099 -7.402,16.5 -16.5,16.5 z m 336,0 c -9.098,0 -16.5,-7.401 -16.5,-16.5 0,-9.098 7.402,-16.5 16.5,-16.5 9.098,0 16.5,7.402 16.5,16.5 0,9.099 -7.402,16.5 -16.5,16.5 z"
   id="path3766"
   style="fill:#000000;fill-opacity:1"
   inkscape:connector-curvature="0" />
	<path
   d="m 423.5,416 c -1.97,0 -3.91,0.8 -5.3,2.2 -1.4,1.39 -2.2,3.33 -2.2,5.3 0,1.97 0.8,3.91 2.2,5.3 1.39,1.4 3.33,2.2 5.3,2.2 1.97,0 3.91,-0.8 5.3,-2.2 1.4,-1.39 2.2,-3.33 2.2,-5.3 0,-1.97 -0.8,-3.91 -2.2,-5.3 -1.39,-1.4 -3.33,-2.2 -5.3,-2.2 z"
   id="path3768"
   inkscape:connector-curvature="0" />
	<path
   d="m 423.5,95 c 1.97,0 3.91,-0.8 5.3,-2.2 1.4,-1.39 2.2,-3.33 2.2,-5.3 0,-1.97 -0.8,-3.91 -2.2,-5.3 -1.39,-1.4 -3.33,-2.2 -5.3,-2.2 -1.97,0 -3.91,0.8 -5.3,2.2 -1.4,1.39 -2.2,3.33 -2.2,5.3 0,1.97 0.8,3.91 2.2,5.3 1.39,1.4 3.33,2.2 5.3,2.2 z"
   id="path3770"
   inkscape:connector-curvature="0" />
	<path
   d="m 87.5,95 c 1.97,0 3.91,-0.8 5.3,-2.2 1.4,-1.39 2.2,-3.33 2.2,-5.3 0,-1.97 -0.8,-3.91 -2.2,-5.3 -1.39,-1.4 -3.33,-2.2 -5.3,-2.2 -1.98,0 -3.91,0.8 -5.3,2.2 -1.4,1.39 -2.2,3.33 -2.2,5.3 0,1.97 0.8,3.91 2.2,5.3 1.39,1.4 3.32,2.2 5.3,2.2 z"
   id="path3772"
   inkscape:connector-curvature="0" />
	<path
   d="m 255.5,367 c 4.142,0 7.5,-3.357 7.5,-7.5 v -24 c 0,-4.142 -3.358,-7.5 -7.5,-7.5 -4.142,0 -7.5,3.358 -7.5,7.5 v 24 c 0,4.143 3.358,7.5 7.5,7.5 z"
   id="path3774"
   inkscape:connector-curvature="0" />
</g>
<g
   id="g3778">
</g>
<g
   id="g3780">
</g>
<g
   id="g3782">
</g>
<g
   id="g3784">
</g>
<g
   id="g3786">
</g>
<g
   id="g3788">
</g>
<g
   id="g3790">
</g>
<g
   id="g3792">
</g>
<g
   id="g3794">
</g>
<g
   id="g3796">
</g>
<g
   id="g3798">
</g>
<g
   id="g3800">
</g>
<g
   id="g3802">
</g>
<g
   id="g3804">
</g>
<g
   id="g3806">
</g>
<path
   style="fill:none;stroke-width:0.07547183"
   d="m 227.82367,236.62738 c 0,-6.76808 0.0252,-6.4319 -0.48315,-6.4319 -0.52918,0 -0.49799,-0.39225 -0.49799,6.26293 v 5.98689 l -0.15897,-0.14377 c -0.0874,-0.0791 -0.22676,-0.27658 -0.3096,-0.43891 -0.13602,-0.26651 -0.183,-0.84096 -0.48446,-5.92453 -0.26279,-4.43136 -0.31781,-5.7338 -0.25855,-6.11996 0.0906,-0.5901 0.48657,-1.41691 0.90368,-1.8868 l 0.30147,-0.33962 0.003,0.65499 c 0.004,0.74769 0.0838,0.89218 0.49489,0.89218 0.41831,0 0.48946,-0.18315 0.48946,-1.25997 v -0.92449 l 0.43396,-0.13034 c 0.5918,-0.17773 1.51663,-0.17486 2.11322,0.007 l 0.4717,0.14345 v 0.95748 c 0,1.07084 0.0578,1.2073 0.5111,1.2073 0.35345,0 0.47003,-0.22269 0.47003,-0.89787 v -0.5624 l 0.1967,0.18296 c 0.32838,0.30546 0.64617,0.81932 0.83165,1.34474 0.24092,0.68246 0.23509,1.02114 -0.12186,7.08355 -0.31844,5.40828 -0.33524,5.54623 -0.71971,5.90741 l -0.18678,0.17548 v -5.9209 c 0,-6.57392 0.0245,-6.25637 -0.48315,-6.25637 -0.52971,0 -0.49798,-0.40784 -0.49798,6.40218 v 6.12613 h -1.50942 -1.50944 z m 1.84367,4.92121 c 0.096,-0.096 0.1186,-0.31097 0.1186,-1.1278 0,-0.95732 -0.009,-1.01523 -0.16774,-1.12668 -0.23638,-0.16557 -0.41397,-0.14641 -0.62815,0.0678 -0.17579,0.17579 -0.18525,0.2308 -0.18525,1.07755 0,1.04199 0.0741,1.22777 0.48946,1.22777 0.13996,0 0.30785,-0.0534 0.37308,-0.1186 z"
   id="path3815"
   inkscape:connector-curvature="0" /><path
   style="fill:none;stroke-width:0.07547183"
   d="m 227.82367,236.62738 c 0,-6.76808 0.0252,-6.4319 -0.48315,-6.4319 -0.52918,0 -0.49799,-0.39225 -0.49799,6.26293 v 5.98689 l -0.15897,-0.14377 c -0.0874,-0.0791 -0.22676,-0.27658 -0.3096,-0.43891 -0.13602,-0.26651 -0.183,-0.84096 -0.48446,-5.92453 -0.26279,-4.43136 -0.31781,-5.7338 -0.25855,-6.11996 0.0906,-0.5901 0.48657,-1.41691 0.90368,-1.8868 l 0.30147,-0.33962 0.003,0.65499 c 0.004,0.74769 0.0838,0.89218 0.49489,0.89218 0.41831,0 0.48946,-0.18315 0.48946,-1.25997 v -0.92449 l 0.43396,-0.13034 c 0.5918,-0.17773 1.51663,-0.17486 2.11322,0.007 l 0.4717,0.14345 v 0.95748 c 0,1.07084 0.0578,1.2073 0.5111,1.2073 0.35345,0 0.47003,-0.22269 0.47003,-0.89787 v -0.5624 l 0.1967,0.18296 c 0.32838,0.30546 0.64617,0.81932 0.83165,1.34474 0.24092,0.68246 0.23509,1.02114 -0.12186,7.08355 -0.31844,5.40828 -0.33524,5.54623 -0.71971,5.90741 l -0.18678,0.17548 v -5.9209 c 0,-6.57392 0.0245,-6.25637 -0.48315,-6.25637 -0.52971,0 -0.49798,-0.40784 -0.49798,6.40218 v 6.12613 h -1.50942 -1.50944 z m 1.84367,4.92121 c 0.096,-0.096 0.1186,-0.31097 0.1186,-1.1278 0,-0.95732 -0.009,-1.01523 -0.16774,-1.12668 -0.23638,-0.16557 -0.41397,-0.14641 -0.62815,0.0678 -0.17579,0.17579 -0.18525,0.2308 -0.18525,1.07755 0,1.04199 0.0741,1.22777 0.48946,1.22777 0.13996,0 0.30785,-0.0534 0.37308,-0.1186 z"
   id="path3817"
   inkscape:connector-curvature="0" /><path
   style="fill:none;stroke-width:0.07547183"
   d="m 227.82367,236.62738 c 0,-6.76808 0.0252,-6.4319 -0.48315,-6.4319 -0.52918,0 -0.49799,-0.39225 -0.49799,6.26293 v 5.98689 l -0.15897,-0.14377 c -0.0874,-0.0791 -0.22676,-0.27658 -0.3096,-0.43891 -0.13602,-0.26651 -0.183,-0.84096 -0.48446,-5.92453 -0.26279,-4.43136 -0.31781,-5.7338 -0.25855,-6.11996 0.0906,-0.5901 0.48657,-1.41691 0.90368,-1.8868 l 0.30147,-0.33962 0.003,0.65499 c 0.004,0.74769 0.0838,0.89218 0.49489,0.89218 0.41831,0 0.48946,-0.18315 0.48946,-1.25997 v -0.92449 l 0.43396,-0.13034 c 0.5918,-0.17773 1.51663,-0.17486 2.11322,0.007 l 0.4717,0.14345 v 0.95748 c 0,1.07084 0.0578,1.2073 0.5111,1.2073 0.35345,0 0.47003,-0.22269 0.47003,-0.89787 v -0.5624 l 0.1967,0.18296 c 0.32838,0.30546 0.64617,0.81932 0.83165,1.34474 0.24092,0.68246 0.23509,1.02114 -0.12186,7.08355 -0.31844,5.40828 -0.33524,5.54623 -0.71971,5.90741 l -0.18678,0.17548 v -5.9209 c 0,-6.57392 0.0245,-6.25637 -0.48315,-6.25637 -0.52971,0 -0.49798,-0.40784 -0.49798,6.40218 v 6.12613 h -1.50942 -1.50944 z m 1.84367,4.92121 c 0.096,-0.096 0.1186,-0.31097 0.1186,-1.1278 0,-0.95732 -0.009,-1.01523 -0.16774,-1.12668 -0.23638,-0.16557 -0.41397,-0.14641 -0.62815,0.0678 -0.17579,0.17579 -0.18525,0.2308 -0.18525,1.07755 0,1.04199 0.0741,1.22777 0.48946,1.22777 0.13996,0 0.30785,-0.0534 0.37308,-0.1186 z"
   id="path3819"
   inkscape:connector-curvature="0" /><path
   style="fill:none;stroke-width:1.20519102"
   d=""
   id="path3821"
   inkscape:connector-curvature="0" /><path
   style="fill:none;stroke-width:0.07547183"
   d="m 234.04729,230.44031 c -0.002,-0.62626 -0.0422,-0.93828 -0.17579,-1.37056 -0.13989,-0.45265 -0.15379,-0.57087 -0.0727,-0.61815 0.0552,-0.0322 1.06825,-0.7375 2.25127,-1.56743 l 2.15095,-1.50897 0.22642,0.21314 c 0.12452,0.11722 0.3534,0.27686 0.50862,0.35475 l 0.28221,0.14163 -2.58411,2.58322 -2.5841,2.58323 z"
   id="path3823"
   inkscape:connector-curvature="0" /><path
   style="fill:url(#linearGradient4877);fill-opacity:1;stroke-width:0.07547183"
   d="m 227.78593,236.58454 c 0,-5.85175 -0.007,-6.1451 -0.13802,-6.26415 -0.20238,-0.18316 -0.58307,-0.16069 -0.72562,0.0428 -0.10392,0.14835 -0.11749,0.85191 -0.11749,6.08863 v 5.9209 l -0.18678,-0.17548 c -0.37953,-0.35654 -0.39718,-0.50411 -0.71792,-6.00178 -0.33511,-5.74385 -0.34751,-6.16519 -0.19794,-6.72692 0.13991,-0.52545 0.52976,-1.23801 0.84391,-1.5425 l 0.25873,-0.25076 v 0.56405 c 0,0.68933 0.11437,0.89952 0.48945,0.89952 0.44359,0 0.49168,-0.11746 0.49168,-1.20099 v -0.96379 l 0.4717,-0.14345 c 0.59659,-0.18143 1.52142,-0.1843 2.11322,-0.007 l 0.43396,0.13034 v 0.92449 c 0,1.06781 0.0729,1.26075 0.47598,1.25881 0.13255,-6.3e-4 0.28133,-0.0268 0.33062,-0.0581 0.153,-0.0973 0.24987,-0.45902 0.25322,-0.94561 l 0.003,-0.46679 0.2927,0.33333 c 0.37653,0.42882 0.64785,0.97104 0.80419,1.60716 0.1203,0.4895 0.11314,0.69878 -0.21289,6.22642 -0.31128,5.27761 -0.34957,5.74362 -0.49518,6.02683 -0.0868,0.16881 -0.21123,0.35127 -0.27653,0.40546 -0.10781,0.0895 -0.11872,-0.43611 -0.11872,-5.71712 0,-5.76896 -0.0149,-6.14501 -0.25001,-6.29448 -0.16784,-0.10672 -0.50432,-0.0597 -0.65566,0.0917 -0.14845,0.14846 -0.15094,0.25157 -0.15094,6.26415 v 6.11321 h -1.50944 -1.50944 z m 1.92026,4.91491 c 0.0904,-0.12912 0.11748,-0.37558 0.11748,-1.07061 0,-0.82312 -0.0145,-0.9183 -0.1641,-1.07754 -0.19093,-0.20325 -0.41286,-0.22279 -0.64929,-0.0572 -0.15884,0.11125 -0.16774,0.17001 -0.16774,1.10726 0,0.81509 0.022,1.01414 0.1249,1.1278 0.17945,0.19828 0.59063,0.18174 0.73875,-0.0297 z"
   id="path4869"
   inkscape:connector-curvature="0" /><path
   style="fill:url(#linearGradient4903);fill-opacity:1;stroke-width:0.07547183"
   d="m 222.01527,228.65482 c -1.40926,-1.40971 -2.54681,-2.57709 -2.5279,-2.59418 0.0189,-0.0171 0.14075,-0.0851 0.27075,-0.1512 0.12999,-0.0661 0.32953,-0.21885 0.44342,-0.33951 l 0.20706,-0.21938 2.26117,1.58412 c 1.99572,1.39815 2.25539,1.603 2.21198,1.745 -0.25131,0.82206 -0.29272,1.06747 -0.29777,1.76467 -0.003,0.42547 -0.006,0.77358 -0.006,0.77358 -2.5e-4,0 -1.15344,-1.15339 -2.56269,-2.5631 z"
   id="path4895"
   inkscape:connector-curvature="0" /><path
   style="fill:url(#linearGradient4913);fill-opacity:1;stroke-width:1.20519102"
   d=""
   id="path4905"
   inkscape:connector-curvature="0" /><path
   style="fill:url(#linearGradient4923);fill-opacity:1;stroke-width:0.07547183"
   d="m 234.0314,230.30244 c -0.0268,-0.6677 -0.0806,-1.05273 -0.18867,-1.35196 l -0.15114,-0.41839 2.15036,-1.50614 c 1.18269,-0.82838 2.198,-1.53368 2.25624,-1.56734 0.0711,-0.0411 0.21006,0.028 0.4231,0.21034 0.17448,0.14934 0.39456,0.29094 0.48907,0.31466 0.0945,0.0237 0.17183,0.0651 0.17183,0.092 0,0.0269 -1.15048,1.19895 -2.55663,2.60464 l -2.55663,2.5558 z"
   id="path4915"
   inkscape:connector-curvature="0" /><path
   style="fill:url(#linearGradient4933);fill-opacity:1;stroke-width:0.07547183"
   d="m 235.3963,243.77604 -2.31418,-1.2479 0.15656,-0.35322 c 0.11674,-0.26338 0.17567,-0.6279 0.2317,-1.43318 l 0.0751,-1.07997 2.27117,2.24978 2.27116,2.24978 -0.14263,0.43396 c -0.0785,0.23868 -0.16335,0.43276 -0.18868,0.4313 -0.0253,-0.001 -1.08743,-0.56421 -2.36023,-1.25055 z"
   id="path4925"
   inkscape:connector-curvature="0" /><path
   style="fill:url(#linearGradient4943);fill-opacity:1;stroke-width:0.07547183"
   d="m 220.76704,244.92082 c 0,-0.10907 -0.0522,-0.32315 -0.11591,-0.47573 l -0.11592,-0.27742 2.24507,-2.24599 c 1.50103,-1.50166 2.26441,-2.21555 2.30344,-2.15412 0.0321,0.0505 0.0596,0.32961 0.061,0.62018 0.004,0.73068 0.12861,1.53237 0.28978,1.85933 l 0.13527,0.27442 -2.00515,1.07764 c -1.10283,0.5927 -2.18345,1.17717 -2.40138,1.29882 l -0.39623,0.22118 z"
   id="path4935"
   inkscape:connector-curvature="0" /><path
   style="fill:#ff9f04;fill-opacity:1;stroke-width:1.20519102"
   d=""
   id="path4945"
   inkscape:connector-curvature="0" /><path
   style="fill:#ff9f04;fill-opacity:1;stroke-width:0.07547183"
   d="m 239.60043,225.12778 c -0.4555,-0.12387 -0.72013,-0.5034 -0.72013,-1.03281 0,-0.27847 0.0437,-0.38434 0.24814,-0.6011 0.32265,-0.34211 0.69429,-0.41975 1.08721,-0.22713 0.56285,0.27591 0.77464,0.87781 0.4793,1.36217 -0.24163,0.39629 -0.70131,0.60581 -1.09452,0.49887 z m 0.57582,-0.6008 c 0.17198,-0.15564 0.1789,-0.53502 0.0131,-0.71821 -0.27247,-0.30108 -0.85623,-0.0607 -0.85623,0.35255 0,0.40658 0.5394,0.64052 0.84312,0.36566 z"
   id="path4949"
   inkscape:connector-curvature="0" /><path
   style="fill:#ff9f04;fill-opacity:1;stroke-width:1.20519102"
   d=""
   id="path4951"
   inkscape:connector-curvature="0" /><path
   style="fill:#ff9f04;fill-opacity:1;stroke-width:0.07547183"
   d="m 218.38968,225.03789 c -0.74731,-0.34405 -0.75725,-1.41784 -0.0164,-1.76941 0.34335,-0.16293 0.46698,-0.15884 0.85345,0.0283 0.77688,0.37608 0.71828,1.43182 -0.0988,1.77997 -0.31084,0.13245 -0.37341,0.12916 -0.73827,-0.0388 z m 0.73409,-0.51808 c 0.40837,-0.46505 -0.0712,-1.06776 -0.61716,-0.77558 -0.2669,0.14284 -0.25066,0.66487 0.0264,0.84989 0.15062,0.10057 0.47274,0.06 0.59072,-0.0743 z"
   id="path4953"
   inkscape:connector-curvature="0" /><path
   style="fill:#ff9f04;fill-opacity:1;stroke-width:0.07547183"
   d="m 218.11665,245.86832 c -0.25108,-0.25108 -0.29297,-0.34018 -0.29273,-0.62264 3.6e-4,-0.42132 0.22632,-0.79645 0.56499,-0.93795 0.3371,-0.14085 0.52189,-0.13707 0.84733,0.0174 0.93893,0.44555 0.59772,1.83623 -0.45052,1.83623 -0.33621,0 -0.40711,-0.031 -0.66907,-0.29301 z m 0.92311,-0.23988 c 0.30633,-0.16395 0.32747,-0.64919 0.0367,-0.84332 -0.18092,-0.12081 -0.56413,-0.0591 -0.68253,0.10998 -0.16557,0.23638 -0.14642,0.41397 0.0678,0.62815 0.20196,0.20196 0.34768,0.22847 0.57804,0.10519 z"
   id="path4955"
   inkscape:connector-curvature="0" /><path
   style="fill:#ff9f04;fill-opacity:1;stroke-width:0.07547183"
   d="m 239.32354,246.03425 c -0.28927,-0.17952 -0.44324,-0.48941 -0.44324,-0.89212 0,-0.30118 0.0379,-0.39225 0.25216,-0.60654 0.43109,-0.43109 0.96864,-0.44146 1.3927,-0.0269 0.62286,0.60896 0.21033,1.65549 -0.65064,1.65059 -0.19399,-0.001 -0.44193,-0.0574 -0.55098,-0.12507 z m 0.82299,-0.44324 c 0.20353,-0.14255 0.226,-0.52324 0.0428,-0.72563 -0.17944,-0.19828 -0.59062,-0.18174 -0.73874,0.0297 -0.16182,0.23103 -0.14712,0.43251 0.0466,0.63872 0.19094,0.20324 0.41287,0.22279 0.6493,0.0572 z"
   id="path4957"
   inkscape:connector-curvature="0" /><path
   style="fill:#ff9f04;fill-opacity:1;stroke-width:0.07547183"
   d="m 239.44634,225.03336 c -0.24132,-0.0988 -0.42339,-0.34701 -0.49797,-0.67895 -0.17423,-0.77544 0.59134,-1.3848 1.28751,-1.02479 0.71529,0.36988 0.71529,1.29351 0,1.66339 -0.23497,0.12151 -0.55169,0.1377 -0.78954,0.0403 z m 0.74933,-0.50008 c 0.0652,-0.0652 0.1186,-0.23261 0.1186,-0.37196 0,-0.30627 -0.16584,-0.49057 -0.44143,-0.49057 -0.32469,0 -0.5397,0.19544 -0.5397,0.49057 0,0.42094 0.56842,0.66607 0.86253,0.37196 z"
   id="path4959"
   inkscape:connector-curvature="0" /><path
   style="fill:#ff9f04;fill-opacity:1;stroke-width:0.07547183"
   d="m 239.27453,224.91864 c -0.86373,-0.72678 -0.0315,-2.10243 0.96135,-1.58902 0.58797,0.30405 0.71752,0.97024 0.28126,1.44629 -0.20759,0.22653 -0.31372,0.27889 -0.62607,0.3089 -0.32677,0.0314 -0.40765,0.01 -0.61654,-0.16617 z m 0.90172,-0.39166 c 0.17198,-0.15564 0.1789,-0.53502 0.0131,-0.71821 -0.27247,-0.30108 -0.85623,-0.0607 -0.85623,0.35255 0,0.40658 0.5394,0.64052 0.84312,0.36566 z"
   id="path4961"
   inkscape:connector-curvature="0" /><path
   style="fill:#ff9f04;fill-opacity:1;stroke-width:1.20519102"
   d=""
   id="path4963"
   inkscape:connector-curvature="0" /></svg>